# Blender 5.2.2 LTS
# www.blender.org
mtllib blank file.mtl
o RenderMesh_81395866936177
v -0.000002 -0.000000 0.000002
v -0.000002 0.000001 0.000002
v -0.000002 0.000001 0.000002
v -0.000002 0.000001 0.000002
v -0.000002 0.000001 0.000001
v -0.000002 -0.000000 0.000002
v -0.000002 -0.000000 0.000002
v -0.000002 -0.000000 0.000002
v -0.000001 0.000001 0.000002
v -0.000001 -0.000000 0.000002
v -0.000002 -0.000000 0.000001
v -0.000002 -0.000000 0.000001
v -0.000001 -0.000000 0.000002
v 0.000000 0.000001 0.000002
v -0.000002 0.000001 -0.000000
v -0.000002 -0.000000 0.000000
v -0.000002 -0.000000 0.000000
v -0.000001 -0.000001 0.000001
v 0.000000 -0.000000 0.000002
v 0.000000 -0.000000 0.000002
v 0.000001 -0.000000 0.000002
v -0.000002 -0.000000 -0.000001
v -0.000001 -0.000001 0.000000
v 0.000000 -0.000001 0.000001
v 0.000001 -0.000000 0.000002
v -0.000002 -0.000000 -0.000001
v -0.000002 -0.000000 -0.000002
v -0.000002 0.000001 -0.000001
v -0.000001 -0.000001 -0.000001
v -0.000002 -0.000000 -0.000002
v 0.000000 -0.000001 0.000000
v 0.000001 -0.000001 0.000001
v 0.000000 -0.000001 -0.000001
v -0.000001 -0.000000 -0.000002
v 0.000001 -0.000001 0.000000
v 0.000000 -0.000000 -0.000002
v 0.000002 -0.000000 0.000002
v 0.000001 -0.000001 -0.000001
v 0.000002 -0.000000 0.000001
v 0.000002 -0.000000 0.000000
v 0.000002 -0.000000 0.000002
v 0.000002 -0.000000 0.000002
v 0.000002 -0.000000 0.000002
v 0.000001 0.000001 0.000002
v 0.000002 0.000001 0.000002
v 0.000002 0.000001 0.000002
v 0.000002 0.000001 0.000002
v 0.000002 0.000001 0.000001
v 0.000002 0.000001 -0.000000
v 0.000002 -0.000000 0.000001
v 0.000002 -0.000000 0.000000
v 0.000002 -0.000000 -0.000001
v 0.000002 -0.000000 -0.000001
v 0.000002 0.000001 -0.000001
v 0.000000 0.000001 -0.000002
v 0.000001 -0.000000 -0.000002
v 0.000002 -0.000000 -0.000002
v 0.000002 -0.000000 -0.000002
v 0.000002 -0.000000 -0.000002
v 0.000002 0.000001 -0.000002
v 0.000002 -0.000000 -0.000002
v 0.000002 0.000001 -0.000002
v 0.000002 0.000001 -0.000002
v 0.000001 0.000001 -0.000002
v 0.000001 -0.000000 -0.000002
v 0.000000 -0.000000 -0.000002
v -0.000001 -0.000000 -0.000002
v -0.000001 0.000001 -0.000002
v -0.000002 -0.000000 -0.000002
v -0.000002 0.000001 -0.000002
v -0.000002 0.000001 -0.000002
v -0.000002 -0.000000 -0.000002
v -0.000002 0.000001 -0.000002
vn -0.6777 -0.2853 0.6777
vn -0.2247 0.9734 0.0447
vn -0.1769 0.9681 0.1773
vn -0.0447 0.9734 0.2247
vn -0.2055 0.9787 0.0001
vn -0.8863 -0.4252 0.1837
vn -0.1837 -0.4252 0.8863
vn -0.2588 -0.9306 0.2588
vn -0.0000 0.9787 0.2055
vn -0.0640 -0.9665 0.2486
vn -0.2486 -0.9665 0.0640
vn -0.8425 -0.5379 0.0281
vn -0.0281 -0.5379 0.8425
vn -0.2055 0.9787 -0.0000
vn -0.2519 -0.9677 -0.0000
vn -0.8411 -0.5408 0.0001
vn -0.0762 -0.9942 0.0762
vn -0.0000 -0.9677 0.2519
vn -0.0000 -0.5408 0.8411
vn 0.0281 -0.5379 0.8425
vn -0.8425 -0.5379 -0.0281
vn -0.0828 -0.9966 -0.0000
vn -0.0000 -0.9966 0.0828
vn 0.0640 -0.9665 0.2486
vn -0.2486 -0.9665 -0.0640
vn -0.8863 -0.4252 -0.1837
vn -0.0763 -0.9942 -0.0763
vn -0.2588 -0.9306 -0.2588
vn -0.0000 -1.0000 -0.0000
vn 0.0763 -0.9942 0.0763
vn -0.0000 -0.9966 -0.0828
vn -0.0640 -0.9665 -0.2486
vn 0.0828 -0.9966 -0.0000
vn -0.0000 -0.9677 -0.2519
vn 0.2588 -0.9306 0.2588
vn 0.0762 -0.9942 -0.0762
vn 0.2486 -0.9665 0.0640
vn 0.2519 -0.9677 -0.0000
vn 0.1837 -0.4252 0.8863
vn 0.8863 -0.4252 0.1837
vn 0.6777 -0.2853 0.6777
vn -0.0000 0.9787 0.2054
vn 0.0447 0.9734 0.2247
vn 0.1770 0.9681 0.1772
vn 0.2247 0.9734 0.0447
vn 0.2055 0.9787 -0.0000
vn 0.8425 -0.5379 0.0281
vn 0.8411 -0.5408 -0.0000
vn 0.8425 -0.5379 -0.0281
vn 0.2486 -0.9665 -0.0640
vn 0.2055 0.9787 -0.0001
vn -0.0000 0.9787 -0.2055
vn 0.0640 -0.9665 -0.2486
vn 0.8863 -0.4252 -0.1837
vn 0.2588 -0.9306 -0.2588
vn 0.6777 -0.2853 -0.6777
vn 0.2247 0.9734 -0.0447
vn 0.1837 -0.4252 -0.8863
vn 0.1769 0.9681 -0.1773
vn 0.0447 0.9734 -0.2247
vn 0.0281 -0.5379 -0.8425
vn -0.0000 -0.5408 -0.8411
vn -0.0281 -0.5379 -0.8425
vn -0.0001 0.9787 -0.2055
vn -0.1837 -0.4252 -0.8863
vn -0.0447 0.9734 -0.2247
vn -0.2247 0.9734 -0.0447
vn -0.6777 -0.2853 -0.6777
vn -0.1770 0.9681 -0.1772
vt 0.000000 0.000000
s 1
f 1/1/1 3/1/3 2/1/2
f 2/1/2 3/1/3 4/1/4
f 4/1/4 3/1/3 1/1/1
f 4/1/4 5/1/5 2/1/2
f 2/1/2 6/1/6 1/1/1
f 6/1/6 2/1/2 5/1/5
f 1/1/1 7/1/7 4/1/4
f 8/1/8 1/1/1 6/1/6
f 8/1/8 7/1/7 1/1/1
f 9/1/9 4/1/4 7/1/7
f 4/1/4 9/1/9 5/1/5
f 10/1/10 7/1/7 8/1/8
f 11/1/11 8/1/8 6/1/6
f 8/1/8 11/1/11 10/1/10
f 5/1/5 12/1/12 6/1/6
f 6/1/6 12/1/12 11/1/11
f 7/1/7 13/1/13 9/1/9
f 7/1/7 10/1/10 13/1/13
f 5/1/5 9/1/9 14/1/9
f 14/1/9 9/1/9 13/1/13
f 12/1/12 5/1/5 15/1/14
f 15/1/14 5/1/5 14/1/9
f 16/1/15 11/1/11 12/1/12
f 15/1/14 17/1/16 12/1/12
f 12/1/12 17/1/16 16/1/15
f 10/1/10 11/1/11 18/1/17
f 11/1/11 16/1/15 18/1/17
f 19/1/18 13/1/13 10/1/10
f 10/1/10 18/1/17 19/1/18
f 13/1/13 20/1/19 14/1/9
f 13/1/13 19/1/18 20/1/19
f 14/1/9 20/1/19 21/1/20
f 21/1/20 20/1/19 19/1/18
f 22/1/21 16/1/15 17/1/16
f 17/1/16 15/1/14 22/1/21
f 18/1/17 16/1/15 23/1/22
f 19/1/18 18/1/17 24/1/23
f 18/1/17 23/1/22 24/1/23
f 19/1/18 25/1/24 21/1/20
f 19/1/18 24/1/23 25/1/24
f 16/1/15 22/1/21 26/1/25
f 16/1/15 26/1/25 23/1/22
f 27/1/26 26/1/25 22/1/21
f 15/1/14 28/1/14 22/1/21
f 27/1/26 22/1/21 28/1/14
f 23/1/22 26/1/25 29/1/27
f 26/1/25 27/1/26 30/1/28
f 26/1/25 30/1/28 29/1/27
f 23/1/22 29/1/27 31/1/29
f 24/1/23 23/1/22 31/1/29
f 24/1/23 31/1/29 32/1/30
f 25/1/24 24/1/23 32/1/30
f 31/1/29 29/1/27 33/1/31
f 29/1/27 30/1/28 34/1/32
f 29/1/27 34/1/32 33/1/31
f 31/1/29 33/1/31 35/1/33
f 32/1/30 31/1/29 35/1/33
f 33/1/31 34/1/32 36/1/34
f 25/1/24 32/1/30 37/1/35
f 35/1/33 33/1/31 38/1/36
f 33/1/31 36/1/34 38/1/36
f 32/1/30 35/1/33 39/1/37
f 37/1/35 32/1/30 39/1/37
f 35/1/33 38/1/36 40/1/38
f 39/1/37 35/1/33 40/1/38
f 25/1/24 37/1/35 41/1/39
f 41/1/39 21/1/20 25/1/24
f 39/1/37 42/1/40 37/1/35
f 37/1/35 43/1/41 41/1/39
f 37/1/35 42/1/40 43/1/41
f 44/1/42 21/1/20 41/1/39
f 21/1/20 44/1/42 14/1/9
f 45/1/43 41/1/39 43/1/41
f 41/1/39 45/1/43 44/1/42
f 43/1/41 46/1/44 45/1/43
f 43/1/41 47/1/45 46/1/44
f 45/1/43 46/1/44 47/1/45
f 43/1/41 42/1/40 47/1/45
f 45/1/43 47/1/45 48/1/46
f 48/1/46 44/1/42 45/1/43
f 42/1/40 48/1/46 47/1/45
f 14/1/9 44/1/42 49/1/46
f 44/1/42 48/1/46 49/1/46
f 49/1/46 15/1/14 14/1/9
f 42/1/40 50/1/47 48/1/46
f 42/1/40 39/1/37 50/1/47
f 50/1/47 49/1/46 48/1/46
f 40/1/38 50/1/47 39/1/37
f 50/1/47 40/1/38 51/1/48
f 50/1/47 51/1/48 49/1/46
f 52/1/49 51/1/48 40/1/38
f 49/1/46 51/1/48 52/1/49
f 40/1/38 53/1/50 52/1/49
f 40/1/38 38/1/36 53/1/50
f 52/1/49 54/1/51 49/1/46
f 55/1/52 15/1/14 49/1/46
f 49/1/46 54/1/51 55/1/52
f 28/1/14 15/1/14 55/1/52
f 38/1/36 56/1/53 53/1/50
f 57/1/54 52/1/49 53/1/50
f 54/1/51 52/1/49 57/1/54
f 53/1/50 58/1/55 57/1/54
f 53/1/50 56/1/53 58/1/55
f 38/1/36 36/1/34 56/1/53
f 58/1/55 59/1/56 57/1/54
f 57/1/54 60/1/57 54/1/51
f 60/1/57 57/1/54 59/1/56
f 58/1/55 61/1/58 59/1/56
f 56/1/53 61/1/58 58/1/55
f 59/1/56 62/1/59 60/1/57
f 60/1/57 62/1/59 63/1/60
f 63/1/60 62/1/59 59/1/56
f 63/1/60 54/1/51 60/1/57
f 59/1/56 61/1/58 63/1/60
f 54/1/51 63/1/60 64/1/52
f 63/1/60 61/1/58 64/1/52
f 54/1/51 64/1/52 55/1/52
f 61/1/58 56/1/53 65/1/61
f 64/1/52 61/1/58 65/1/61
f 36/1/34 65/1/61 56/1/53
f 64/1/52 65/1/61 55/1/52
f 36/1/34 66/1/62 65/1/61
f 55/1/52 65/1/61 66/1/62
f 67/1/63 66/1/62 36/1/34
f 55/1/52 66/1/62 67/1/63
f 36/1/34 34/1/32 67/1/63
f 67/1/63 68/1/64 55/1/52
f 28/1/14 55/1/52 68/1/64
f 69/1/65 67/1/63 34/1/32
f 68/1/64 67/1/63 69/1/65
f 34/1/32 30/1/28 69/1/65
f 68/1/64 70/1/66 28/1/14
f 69/1/65 70/1/66 68/1/64
f 70/1/66 71/1/67 28/1/14
f 28/1/14 71/1/67 27/1/26
f 30/1/28 72/1/68 69/1/65
f 30/1/28 27/1/26 72/1/68
f 70/1/66 69/1/65 72/1/68
f 71/1/67 72/1/68 27/1/26
f 72/1/68 73/1/69 70/1/66
f 70/1/66 73/1/69 71/1/67
f 71/1/67 73/1/69 72/1/68
